<?xml version="1.0" standalone="no"?>
<!DOCTYPE svg PUBLIC "-//W3C//DTD SVG 20010904//EN"
 "http://www.w3.org/TR/2001/REC-SVG-20010904/DTD/svg10.dtd">
<svg version="1.0" xmlns="http://www.w3.org/2000/svg"
 width="439.000000pt" height="115.000000pt" viewBox="0 0 439.000000 115.000000"
 preserveAspectRatio="xMidYMid meet">

<g transform="translate(0.000000,115.000000) scale(0.100000,-0.100000)"
fill="#000000" stroke="none">
<path d="M391 966 c-49 -27 -50 -39 -51 -389 0 -371 1 -378 68 -397 24 -8 147
-10 365 -8 l329 3 24 28 24 28 0 344 0 344 -24 28 -24 28 -344 2 c-272 2 -348
0 -367 -11z m354 -191 l0 -40 -95 0 -95 0 -3 28 c-6 49 11 58 107 55 l86 -3 0
-40z m199 -81 c12 -32 6 -171 -8 -183 -9 -8 -70 -11 -197 -9 l-184 3 -3 89
c-2 49 -1 95 2 103 4 10 46 13 195 13 163 0 190 -2 195 -16z m41 -289 l0 -70
-229 -3 c-160 -2 -233 1 -242 9 -15 12 -20 119 -7 133 4 3 113 5 242 4 l236
-3 0 -70z"/>
<path d="M750 626 c0 -51 8 -56 80 -56 72 0 80 5 80 56 l0 44 -80 0 -80 0 0
-44z"/>
<path d="M727 439 c-32 -18 -14 -69 25 -69 19 0 38 28 31 48 -8 20 -37 31 -56
21z m41 -32 c2 -12 -3 -17 -17 -17 -15 0 -21 6 -21 21 0 25 33 22 38 -4z"/>
<path d="M1351 618 c-12 -106 -25 -212 -28 -235 l-6 -43 45 0 45 0 7 68 c13
132 16 142 42 142 29 0 49 -27 99 -128 l39 -82 53 0 53 0 -54 109 c-30 60 -62
116 -71 124 -14 14 -13 18 11 44 30 32 136 162 148 181 5 9 -5 12 -43 12 l-49
0 -68 -87 c-76 -100 -90 -113 -117 -113 -16 0 -18 5 -13 33 3 17 8 62 12 100
l7 67 -45 0 -44 0 -23 -192z"/>
<path d="M2276 714 c-31 -30 -13 -67 30 -62 35 4 47 44 18 65 -23 17 -29 16
-48 -3z"/>
<path d="M1857 597 c-86 -27 -142 -126 -118 -208 8 -27 20 -43 37 -49 38 -15
50 -12 82 15 36 30 42 31 42 5 0 -15 7 -20 25 -20 14 0 25 1 26 3 0 1 8 59 17
129 l18 126 -29 6 c-39 8 -55 7 -100 -7z m47 -69 c24 -34 19 -63 -15 -92 -17
-14 -35 -26 -40 -26 -5 0 -8 -6 -6 -12 1 -7 -4 -13 -10 -12 -7 1 -20 2 -28 3
-15 1 -22 31 -7 31 4 0 6 20 4 44 -3 35 1 49 17 65 27 27 66 27 85 -1z"/>
<path d="M2094 603 c-52 -10 -86 -90 -55 -127 19 -22 77 -38 111 -31 42 9 37
23 -15 46 -50 22 -58 30 -49 52 8 23 30 28 65 15 24 -8 34 -8 45 4 12 12 13
17 2 25 -16 13 -75 23 -104 16z"/>
<path d="M2255 543 c-4 -32 -9 -65 -11 -73 -3 -13 3 -15 30 -12 31 4 34 7 40
49 11 85 9 93 -23 93 -29 0 -30 -2 -36 -57z"/>
<path d="M2385 588 c-2 -7 -6 -37 -10 -65 l-6 -53 33 7 c18 3 47 21 64 40 21
22 37 31 48 27 9 -3 16 -2 16 2 0 5 3 19 6 32 5 19 2 22 -19 22 -15 0 -33 -10
-45 -25 -11 -14 -23 -25 -26 -25 -3 0 -6 11 -6 25 0 20 -5 25 -25 25 -14 0
-27 -6 -30 -12z"/>
<path d="M2130 405 c0 -22 -40 -34 -73 -23 -32 12 -57 5 -57 -16 0 -20 64 -39
105 -32 31 6 85 54 85 77 0 5 -13 9 -30 9 -20 0 -30 -5 -30 -15z"/>
<path d="M2236 398 c-13 -49 -8 -59 27 -56 29 3 32 6 35 41 3 35 2 37 -26 37
-22 0 -31 -6 -36 -22z"/>
<path d="M2360 380 c0 -38 2 -40 30 -40 22 0 30 5 30 18 0 9 3 27 6 40 6 20 3
22 -30 22 -35 0 -36 -1 -36 -40z"/>
</g>
</svg>
